<svg xmlns="http://www.w3.org/2000/svg" width="680" height="440" viewBox="0 0 680 440" fill="none">
  <defs>
    <linearGradient id="bg" x1="0" y1="0" x2="1" y2="1">
      <stop offset="0" stop-color="#0c0c1e"/>
      <stop offset="1" stop-color="#0a0a18"/>
    </linearGradient>
    <radialGradient id="glow" cx="0.85" cy="0.1" r="0.9">
      <stop offset="0" stop-color="#a78bfa" stop-opacity="0.22"/>
      <stop offset="0.6" stop-color="#a78bfa" stop-opacity="0"/>
    </radialGradient>
  </defs>
  <rect width="680" height="440" rx="20" fill="url(#bg)"/>
  <rect width="680" height="440" rx="20" fill="url(#glow)"/>
  <rect x="0.5" y="0.5" width="679" height="439" rx="20" stroke="rgba(255,255,255,0.09)"/>
  <!-- window chrome -->
  <circle cx="30" cy="30" r="5" fill="#3a3a55"/><circle cx="48" cy="30" r="5" fill="#3a3a55"/><circle cx="66" cy="30" r="5" fill="#3a3a55"/>
  <text x="652" y="35" text-anchor="end" font-family="Arial, sans-serif" font-size="14" font-weight="700" fill="#7b7b98">REPORTS</text>
  <line x1="0" y1="60" x2="680" y2="60" stroke="rgba(255,255,255,0.09)"/>
  <text x="40" y="96" text-anchor="start" font-family="Arial, sans-serif" font-size="12" font-weight="700" fill="#7b7b98">Monthly report</text>
    <rect x="480" y="82" width="160" height="24" rx="7" fill="#a78bfa" fill-opacity="0.16"/><text x="560" y="98" text-anchor="middle" font-family="Arial, sans-serif" font-size="11.5" font-weight="700" fill="#a78bfa">Auto-generated</text>
    <rect x="40" y="130" width="130" height="60" rx="12" fill="#14142e" fill-opacity="1"/><text x="56" y="158" text-anchor="start" font-family="Arial, sans-serif" font-size="22" font-weight="800" fill="#e9e9f6">1,240</text><text x="56" y="178" text-anchor="start" font-family="Arial, sans-serif" font-size="11" font-weight="600" fill="#7b7b98">records</text>
    <rect x="184" y="130" width="130" height="60" rx="12" fill="#14142e" fill-opacity="1"/><text x="200" y="158" text-anchor="start" font-family="Arial, sans-serif" font-size="22" font-weight="800" fill="#a78bfa">99.4%</text><text x="200" y="178" text-anchor="start" font-family="Arial, sans-serif" font-size="11" font-weight="600" fill="#7b7b98">accuracy</text>
    <line x1="40" y1="360" x2="640" y2="360" stroke="rgba(255,255,255,0.09)"/>
    <rect x="60" y="260" width="44" height="100" rx="8" fill="#a78bfa" fill-opacity="0.85"/><rect x="140" y="220" width="44" height="140" rx="8" fill="#a78bfa" fill-opacity="0.85"/><rect x="220" y="270" width="44" height="90" rx="8" fill="#a78bfa" fill-opacity="0.85"/><rect x="300" y="190" width="44" height="170" rx="8" fill="#a78bfa" fill-opacity="0.85"/><rect x="380" y="240" width="44" height="120" rx="8" fill="#a78bfa" fill-opacity="0.85"/><rect x="460" y="170" width="44" height="190" rx="8" fill="#a78bfa" fill-opacity="0.85"/><rect x="540" y="210" width="44" height="150" rx="8" fill="#a78bfa" fill-opacity="0.85"/>
    <polyline points="82,236 162,196 242,246 322,166 402,216 482,146 562,186" fill="none" stroke="#e9e9f6" stroke-width="2.5" stroke-opacity="0.6"/>
</svg>