<svg xmlns="http://www.w3.org/2000/svg" width="680" height="440" viewBox="0 0 680 440" fill="none">
  <defs>
    <linearGradient id="bg" x1="0" y1="0" x2="1" y2="1">
      <stop offset="0" stop-color="#0c0c1e"/>
      <stop offset="1" stop-color="#0a0a18"/>
    </linearGradient>
    <radialGradient id="glow" cx="0.85" cy="0.1" r="0.9">
      <stop offset="0" stop-color="#fb7185" stop-opacity="0.22"/>
      <stop offset="0.6" stop-color="#fb7185" stop-opacity="0"/>
    </radialGradient>
  </defs>
  <rect width="680" height="440" rx="20" fill="url(#bg)"/>
  <rect width="680" height="440" rx="20" fill="url(#glow)"/>
  <rect x="0.5" y="0.5" width="679" height="439" rx="20" stroke="rgba(255,255,255,0.09)"/>
  <!-- window chrome -->
  <circle cx="30" cy="30" r="5" fill="#3a3a55"/><circle cx="48" cy="30" r="5" fill="#3a3a55"/><circle cx="66" cy="30" r="5" fill="#3a3a55"/>
  <text x="652" y="35" text-anchor="end" font-family="Arial, sans-serif" font-size="14" font-weight="700" fill="#7b7b98">BILLING</text>
  <line x1="0" y1="60" x2="680" y2="60" stroke="rgba(255,255,255,0.09)"/>
  <text x="40" y="90" text-anchor="start" font-family="Arial, sans-serif" font-size="12" font-weight="700" fill="#7b7b98">Billing &amp; claims</text>
    <rect x="430" y="74" width="210" height="24" rx="7" fill="#fb7185" fill-opacity="0.16"/><text x="535" y="90" text-anchor="middle" font-family="Arial, sans-serif" font-size="11.5" font-weight="700" fill="#fb7185">Avg. payment: 2 days</text>
    <rect x="40" y="108" width="600" height="52" rx="12" fill="#14142e" fill-opacity="1"/>
      <text x="64" y="140" text-anchor="start" font-family="Arial, sans-serif" font-size="14" font-weight="600" fill="#e9e9f6">Claim #4821 · Aetna</text>
      <text x="470" y="140" text-anchor="end" font-family="Arial, sans-serif" font-size="15" font-weight="800" fill="#e9e9f6">€1,240</text>
      <rect x="500" y="122" width="116" height="24" rx="7" fill="#fb7185" fill-opacity="0.16"/>
      <text x="558" y="138" text-anchor="middle" font-family="Arial, sans-serif" font-size="11.5" font-weight="700" fill="#fb7185">Paid</text><rect x="40" y="172" width="600" height="52" rx="12" fill="#14142e" fill-opacity="1"/>
      <text x="64" y="204" text-anchor="start" font-family="Arial, sans-serif" font-size="14" font-weight="600" fill="#e9e9f6">Claim #4822 · BUPA</text>
      <text x="470" y="204" text-anchor="end" font-family="Arial, sans-serif" font-size="15" font-weight="800" fill="#e9e9f6">€860</text>
      <rect x="500" y="186" width="116" height="24" rx="7" fill="#fb7185" fill-opacity="0.16"/>
      <text x="558" y="202" text-anchor="middle" font-family="Arial, sans-serif" font-size="11.5" font-weight="700" fill="#fb7185">Paid</text><rect x="40" y="236" width="600" height="52" rx="12" fill="#14142e" fill-opacity="1"/>
      <text x="64" y="268" text-anchor="start" font-family="Arial, sans-serif" font-size="14" font-weight="600" fill="#e9e9f6">Claim #4823 · AOK</text>
      <text x="470" y="268" text-anchor="end" font-family="Arial, sans-serif" font-size="15" font-weight="800" fill="#e9e9f6">€2,110</text>
      <rect x="500" y="250" width="116" height="24" rx="7" fill="#f59e0b" fill-opacity="0.16"/>
      <text x="558" y="266" text-anchor="middle" font-family="Arial, sans-serif" font-size="11.5" font-weight="700" fill="#f59e0b">Pending</text><rect x="40" y="300" width="600" height="52" rx="12" fill="#14142e" fill-opacity="1"/>
      <text x="64" y="332" text-anchor="start" font-family="Arial, sans-serif" font-size="14" font-weight="600" fill="#e9e9f6">Claim #4824 · TK</text>
      <text x="470" y="332" text-anchor="end" font-family="Arial, sans-serif" font-size="15" font-weight="800" fill="#e9e9f6">€540</text>
      <rect x="500" y="314" width="116" height="24" rx="7" fill="#fb7185" fill-opacity="0.16"/>
      <text x="558" y="330" text-anchor="middle" font-family="Arial, sans-serif" font-size="11.5" font-weight="700" fill="#fb7185">Paid</text>
</svg>