<svg xmlns="http://www.w3.org/2000/svg" width="680" height="440" viewBox="0 0 680 440" fill="none">
  <defs>
    <linearGradient id="bg" x1="0" y1="0" x2="1" y2="1">
      <stop offset="0" stop-color="#0c0c1e"/>
      <stop offset="1" stop-color="#0a0a18"/>
    </linearGradient>
    <radialGradient id="glow" cx="0.85" cy="0.1" r="0.9">
      <stop offset="0" stop-color="#22d3ee" stop-opacity="0.22"/>
      <stop offset="0.6" stop-color="#22d3ee" stop-opacity="0"/>
    </radialGradient>
  </defs>
  <rect width="680" height="440" rx="20" fill="url(#bg)"/>
  <rect width="680" height="440" rx="20" fill="url(#glow)"/>
  <rect x="0.5" y="0.5" width="679" height="439" rx="20" stroke="rgba(255,255,255,0.09)"/>
  <!-- window chrome -->
  <circle cx="30" cy="30" r="5" fill="#3a3a55"/><circle cx="48" cy="30" r="5" fill="#3a3a55"/><circle cx="66" cy="30" r="5" fill="#3a3a55"/>
  <text x="652" y="35" text-anchor="end" font-family="Arial, sans-serif" font-size="14" font-weight="700" fill="#7b7b98">EQUIPMENT</text>
  <line x1="0" y1="60" x2="680" y2="60" stroke="rgba(255,255,255,0.09)"/>
  <text x="40" y="90" text-anchor="start" font-family="Arial, sans-serif" font-size="12" font-weight="700" fill="#7b7b98">Equipment status</text><rect x="40" y="104" width="600" height="50" rx="12" fill="#14142e" fill-opacity="1"/>
      <circle cx="66" cy="129" r="6" fill="#f59e0b"/>
      <text x="90" y="134" text-anchor="start" font-family="Arial, sans-serif" font-size="14" font-weight="600" fill="#e9e9f6">MRI Scanner · Rad-1</text>
      <rect x="520" y="117" width="104" height="24" rx="7" fill="#f59e0b" fill-opacity="0.16"/>
      <text x="572" y="133" text-anchor="middle" font-family="Arial, sans-serif" font-size="11.5" font-weight="700" fill="#f59e0b">Calibration due</text><rect x="40" y="166" width="600" height="50" rx="12" fill="#14142e" fill-opacity="1"/>
      <circle cx="66" cy="191" r="6" fill="#22d3ee"/>
      <text x="90" y="196" text-anchor="start" font-family="Arial, sans-serif" font-size="14" font-weight="600" fill="#e9e9f6">Ventilator · ICU-4</text>
      <rect x="520" y="179" width="104" height="24" rx="7" fill="#22d3ee" fill-opacity="0.16"/>
      <text x="572" y="195" text-anchor="middle" font-family="Arial, sans-serif" font-size="11.5" font-weight="700" fill="#22d3ee">OK</text><rect x="40" y="228" width="600" height="50" rx="12" fill="#14142e" fill-opacity="1"/>
      <circle cx="66" cy="253" r="6" fill="#f59e0b"/>
      <text x="90" y="258" text-anchor="start" font-family="Arial, sans-serif" font-size="14" font-weight="600" fill="#e9e9f6">Defibrillator · ER-2</text>
      <rect x="520" y="241" width="104" height="24" rx="7" fill="#f59e0b" fill-opacity="0.16"/>
      <text x="572" y="257" text-anchor="middle" font-family="Arial, sans-serif" font-size="11.5" font-weight="700" fill="#f59e0b">Service in 5d</text><rect x="40" y="290" width="600" height="50" rx="12" fill="#14142e" fill-opacity="1"/>
      <circle cx="66" cy="315" r="6" fill="#22d3ee"/>
      <text x="90" y="320" text-anchor="start" font-family="Arial, sans-serif" font-size="14" font-weight="600" fill="#e9e9f6">Infusion Pump · W3</text>
      <rect x="520" y="303" width="104" height="24" rx="7" fill="#22d3ee" fill-opacity="0.16"/>
      <text x="572" y="319" text-anchor="middle" font-family="Arial, sans-serif" font-size="11.5" font-weight="700" fill="#22d3ee">OK</text><rect x="40" y="352" width="600" height="50" rx="12" fill="#14142e" fill-opacity="1"/>
      <circle cx="66" cy="377" r="6" fill="#22d3ee"/>
      <text x="90" y="382" text-anchor="start" font-family="Arial, sans-serif" font-size="14" font-weight="600" fill="#e9e9f6">X-Ray · Rad-3</text>
      <rect x="520" y="365" width="104" height="24" rx="7" fill="#22d3ee" fill-opacity="0.16"/>
      <text x="572" y="381" text-anchor="middle" font-family="Arial, sans-serif" font-size="11.5" font-weight="700" fill="#22d3ee">OK</text>
</svg>