<svg xmlns="http://www.w3.org/2000/svg" width="680" height="440" viewBox="0 0 680 440" fill="none">
  <defs>
    <linearGradient id="bg" x1="0" y1="0" x2="1" y2="1">
      <stop offset="0" stop-color="#0c0c1e"/>
      <stop offset="1" stop-color="#0a0a18"/>
    </linearGradient>
    <radialGradient id="glow" cx="0.85" cy="0.1" r="0.9">
      <stop offset="0" stop-color="#f59e0b" stop-opacity="0.22"/>
      <stop offset="0.6" stop-color="#f59e0b" stop-opacity="0"/>
    </radialGradient>
  </defs>
  <rect width="680" height="440" rx="20" fill="url(#bg)"/>
  <rect width="680" height="440" rx="20" fill="url(#glow)"/>
  <rect x="0.5" y="0.5" width="679" height="439" rx="20" stroke="rgba(255,255,255,0.09)"/>
  <!-- window chrome -->
  <circle cx="30" cy="30" r="5" fill="#3a3a55"/><circle cx="48" cy="30" r="5" fill="#3a3a55"/><circle cx="66" cy="30" r="5" fill="#3a3a55"/>
  <text x="652" y="35" text-anchor="end" font-family="Arial, sans-serif" font-size="14" font-weight="700" fill="#7b7b98">EXPIRY</text>
  <line x1="0" y1="60" x2="680" y2="60" stroke="rgba(255,255,255,0.09)"/>
  <text x="40" y="96" text-anchor="start" font-family="Arial, sans-serif" font-size="12" font-weight="700" fill="#7b7b98">Expiry monitor</text>
    <rect x="470" y="82" width="170" height="24" rx="7" fill="#f59e0b" fill-opacity="0.16"/><text x="555" y="98" text-anchor="middle" font-family="Arial, sans-serif" font-size="11.5" font-weight="700" fill="#f59e0b">3 expiring this week</text>
    <text x="40" y="130" text-anchor="start" font-family="Arial, sans-serif" font-size="15" font-weight="800" fill="#e9e9f6">JUNE 2026</text>
    <rect x="40" y="150" width="74" height="62" rx="10" fill="#14142e" fill-opacity="1"/><text x="52" y="174" text-anchor="start" font-family="Arial, sans-serif" font-size="13" font-weight="700" fill="#7b7b98">12</text><rect x="126" y="150" width="74" height="62" rx="10" fill="#14142e" fill-opacity="1"/><text x="138" y="174" text-anchor="start" font-family="Arial, sans-serif" font-size="13" font-weight="700" fill="#7b7b98">13</text><rect x="212" y="150" width="74" height="62" rx="10" fill="#14142e" fill-opacity="1"/><text x="224" y="174" text-anchor="start" font-family="Arial, sans-serif" font-size="13" font-weight="700" fill="#7b7b98">14</text><rect x="298" y="150" width="74" height="62" rx="10" fill="#f59e0b" fill-opacity="0.9"/><text x="310" y="174" text-anchor="start" font-family="Arial, sans-serif" font-size="13" font-weight="700" fill="#1a1206">15</text><rect x="310" y="184" width="40" height="8" rx="4" fill="#1a1206" fill-opacity="0.5"/><rect x="384" y="150" width="74" height="62" rx="10" fill="#f59e0b" fill-opacity="0.9"/><text x="396" y="174" text-anchor="start" font-family="Arial, sans-serif" font-size="13" font-weight="700" fill="#1a1206">16</text><rect x="396" y="184" width="40" height="8" rx="4" fill="#1a1206" fill-opacity="0.5"/><rect x="470" y="150" width="74" height="62" rx="10" fill="#14142e" fill-opacity="1"/><text x="482" y="174" text-anchor="start" font-family="Arial, sans-serif" font-size="13" font-weight="700" fill="#7b7b98">17</text><rect x="556" y="150" width="74" height="62" rx="10" fill="#14142e" fill-opacity="1"/><text x="568" y="174" text-anchor="start" font-family="Arial, sans-serif" font-size="13" font-weight="700" fill="#7b7b98">18</text><rect x="40" y="224" width="74" height="62" rx="10" fill="#14142e" fill-opacity="1"/><text x="52" y="248" text-anchor="start" font-family="Arial, sans-serif" font-size="13" font-weight="700" fill="#7b7b98">19</text><rect x="126" y="224" width="74" height="62" rx="10" fill="#14142e" fill-opacity="1"/><text x="138" y="248" text-anchor="start" font-family="Arial, sans-serif" font-size="13" font-weight="700" fill="#7b7b98">20</text><rect x="212" y="224" width="74" height="62" rx="10" fill="#f59e0b" fill-opacity="0.9"/><text x="224" y="248" text-anchor="start" font-family="Arial, sans-serif" font-size="13" font-weight="700" fill="#1a1206">21</text><rect x="224" y="258" width="40" height="8" rx="4" fill="#1a1206" fill-opacity="0.5"/><rect x="298" y="224" width="74" height="62" rx="10" fill="#14142e" fill-opacity="1"/><text x="310" y="248" text-anchor="start" font-family="Arial, sans-serif" font-size="13" font-weight="700" fill="#7b7b98">22</text><rect x="384" y="224" width="74" height="62" rx="10" fill="#14142e" fill-opacity="1"/><text x="396" y="248" text-anchor="start" font-family="Arial, sans-serif" font-size="13" font-weight="700" fill="#7b7b98">23</text><rect x="470" y="224" width="74" height="62" rx="10" fill="#14142e" fill-opacity="1"/><text x="482" y="248" text-anchor="start" font-family="Arial, sans-serif" font-size="13" font-weight="700" fill="#7b7b98">24</text><rect x="556" y="224" width="74" height="62" rx="10" fill="#14142e" fill-opacity="1"/><text x="568" y="248" text-anchor="start" font-family="Arial, sans-serif" font-size="13" font-weight="700" fill="#7b7b98">25</text><rect x="40" y="298" width="74" height="62" rx="10" fill="#14142e" fill-opacity="1"/><text x="52" y="322" text-anchor="start" font-family="Arial, sans-serif" font-size="13" font-weight="700" fill="#7b7b98">26</text><rect x="126" y="298" width="74" height="62" rx="10" fill="#14142e" fill-opacity="1"/><text x="138" y="322" text-anchor="start" font-family="Arial, sans-serif" font-size="13" font-weight="700" fill="#7b7b98">27</text><rect x="212" y="298" width="74" height="62" rx="10" fill="#14142e" fill-opacity="1"/><text x="224" y="322" text-anchor="start" font-family="Arial, sans-serif" font-size="13" font-weight="700" fill="#7b7b98">28</text><rect x="298" y="298" width="74" height="62" rx="10" fill="#14142e" fill-opacity="1"/><text x="310" y="322" text-anchor="start" font-family="Arial, sans-serif" font-size="13" font-weight="700" fill="#7b7b98">29</text><rect x="384" y="298" width="74" height="62" rx="10" fill="#14142e" fill-opacity="1"/><text x="396" y="322" text-anchor="start" font-family="Arial, sans-serif" font-size="13" font-weight="700" fill="#7b7b98">30</text><rect x="470" y="298" width="74" height="62" rx="10" fill="#14142e" fill-opacity="1"/><text x="482" y="322" text-anchor="start" font-family="Arial, sans-serif" font-size="13" font-weight="700" fill="#7b7b98">31</text><rect x="556" y="298" width="74" height="62" rx="10" fill="#14142e" fill-opacity="1"/><text x="568" y="322" text-anchor="start" font-family="Arial, sans-serif" font-size="13" font-weight="700" fill="#7b7b98">32</text>
</svg>