<svg xmlns="http://www.w3.org/2000/svg" width="680" height="440" viewBox="0 0 680 440" fill="none">
  <defs>
    <linearGradient id="bg" x1="0" y1="0" x2="1" y2="1">
      <stop offset="0" stop-color="#0c0c1e"/>
      <stop offset="1" stop-color="#0a0a18"/>
    </linearGradient>
    <radialGradient id="glow" cx="0.85" cy="0.1" r="0.9">
      <stop offset="0" stop-color="#38bdf8" stop-opacity="0.22"/>
      <stop offset="0.6" stop-color="#38bdf8" stop-opacity="0"/>
    </radialGradient>
  </defs>
  <rect width="680" height="440" rx="20" fill="url(#bg)"/>
  <rect width="680" height="440" rx="20" fill="url(#glow)"/>
  <rect x="0.5" y="0.5" width="679" height="439" rx="20" stroke="rgba(255,255,255,0.09)"/>
  <!-- window chrome -->
  <circle cx="30" cy="30" r="5" fill="#3a3a55"/><circle cx="48" cy="30" r="5" fill="#3a3a55"/><circle cx="66" cy="30" r="5" fill="#3a3a55"/>
  <text x="652" y="35" text-anchor="end" font-family="Arial, sans-serif" font-size="14" font-weight="700" fill="#7b7b98">SCHEDULING</text>
  <line x1="0" y1="60" x2="680" y2="60" stroke="rgba(255,255,255,0.09)"/>
  <text x="40" y="96" text-anchor="start" font-family="Arial, sans-serif" font-size="12" font-weight="700" fill="#7b7b98">Weekly rota · Ward 3</text>
    <rect x="470" y="82" width="170" height="24" rx="7" fill="#38bdf8" fill-opacity="0.16"/><text x="555" y="98" text-anchor="middle" font-family="Arial, sans-serif" font-size="11.5" font-weight="700" fill="#38bdf8">Coverage: 100%</text>
    <text x="58" y="118" text-anchor="middle" font-family="Arial, sans-serif" font-size="12" font-weight="700" fill="#7b7b98">Mon</text><text x="142" y="118" text-anchor="middle" font-family="Arial, sans-serif" font-size="12" font-weight="700" fill="#7b7b98">Tue</text><text x="226" y="118" text-anchor="middle" font-family="Arial, sans-serif" font-size="12" font-weight="700" fill="#7b7b98">Wed</text><text x="310" y="118" text-anchor="middle" font-family="Arial, sans-serif" font-size="12" font-weight="700" fill="#7b7b98">Thu</text><text x="394" y="118" text-anchor="middle" font-family="Arial, sans-serif" font-size="12" font-weight="700" fill="#7b7b98">Fri</text><text x="478" y="118" text-anchor="middle" font-family="Arial, sans-serif" font-size="12" font-weight="700" fill="#7b7b98">Sat</text><text x="562" y="118" text-anchor="middle" font-family="Arial, sans-serif" font-size="12" font-weight="700" fill="#7b7b98">Sun</text><rect x="24" y="138" width="72" height="72" rx="12" fill="#38bdf8" fill-opacity="0.85"/><text x="60" y="180" text-anchor="middle" font-family="Arial, sans-serif" font-size="12" font-weight="800" fill="#1a1206">AM</text><rect x="24" y="222" width="72" height="72" rx="12" fill="#14142e" fill-opacity="1"/><rect x="24" y="306" width="72" height="72" rx="12" fill="#38bdf8" fill-opacity="0.85"/><text x="60" y="348" text-anchor="middle" font-family="Arial, sans-serif" font-size="12" font-weight="800" fill="#1a1206">Night</text><rect x="108" y="138" width="72" height="72" rx="12" fill="#38bdf8" fill-opacity="0.85"/><text x="144" y="180" text-anchor="middle" font-family="Arial, sans-serif" font-size="12" font-weight="800" fill="#1a1206">AM</text><rect x="108" y="222" width="72" height="72" rx="12" fill="#38bdf8" fill-opacity="0.85"/><text x="144" y="264" text-anchor="middle" font-family="Arial, sans-serif" font-size="12" font-weight="800" fill="#1a1206">PM</text><rect x="108" y="306" width="72" height="72" rx="12" fill="#14142e" fill-opacity="1"/><rect x="192" y="138" width="72" height="72" rx="12" fill="#38bdf8" fill-opacity="0.85"/><text x="228" y="180" text-anchor="middle" font-family="Arial, sans-serif" font-size="12" font-weight="800" fill="#1a1206">AM</text><rect x="192" y="222" width="72" height="72" rx="12" fill="#14142e" fill-opacity="1"/><rect x="192" y="306" width="72" height="72" rx="12" fill="#38bdf8" fill-opacity="0.85"/><text x="228" y="348" text-anchor="middle" font-family="Arial, sans-serif" font-size="12" font-weight="800" fill="#1a1206">Night</text><rect x="276" y="138" width="72" height="72" rx="12" fill="#14142e" fill-opacity="1"/><rect x="276" y="222" width="72" height="72" rx="12" fill="#38bdf8" fill-opacity="0.85"/><text x="312" y="264" text-anchor="middle" font-family="Arial, sans-serif" font-size="12" font-weight="800" fill="#1a1206">PM</text><rect x="276" y="306" width="72" height="72" rx="12" fill="#38bdf8" fill-opacity="0.85"/><text x="312" y="348" text-anchor="middle" font-family="Arial, sans-serif" font-size="12" font-weight="800" fill="#1a1206">Night</text><rect x="360" y="138" width="72" height="72" rx="12" fill="#38bdf8" fill-opacity="0.85"/><text x="396" y="180" text-anchor="middle" font-family="Arial, sans-serif" font-size="12" font-weight="800" fill="#1a1206">AM</text><rect x="360" y="222" width="72" height="72" rx="12" fill="#38bdf8" fill-opacity="0.85"/><text x="396" y="264" text-anchor="middle" font-family="Arial, sans-serif" font-size="12" font-weight="800" fill="#1a1206">PM</text><rect x="360" y="306" width="72" height="72" rx="12" fill="#14142e" fill-opacity="1"/><rect x="444" y="138" width="72" height="72" rx="12" fill="#14142e" fill-opacity="1"/><rect x="444" y="222" width="72" height="72" rx="12" fill="#14142e" fill-opacity="1"/><rect x="444" y="306" width="72" height="72" rx="12" fill="#38bdf8" fill-opacity="0.85"/><text x="480" y="348" text-anchor="middle" font-family="Arial, sans-serif" font-size="12" font-weight="800" fill="#1a1206">Night</text><rect x="528" y="138" width="72" height="72" rx="12" fill="#14142e" fill-opacity="1"/><rect x="528" y="222" width="72" height="72" rx="12" fill="#38bdf8" fill-opacity="0.85"/><text x="564" y="264" text-anchor="middle" font-family="Arial, sans-serif" font-size="12" font-weight="800" fill="#1a1206">PM</text><rect x="528" y="306" width="72" height="72" rx="12" fill="#14142e" fill-opacity="1"/>
</svg>