<?xml version="1.0" encoding="UTF-8"?>
<svg version="1.2" baseProfile="tiny-ps" xmlns="http://www.w3.org/2000/svg" viewBox="0 0 1024 1024">
<title>Deooch</title>
<rect width="1024" height="1024" fill="#ffffff"/>
<g transform="translate(0,1024) scale(0.1,-0.1)" stroke="none">
<path fill="#F58220" d="M5412 6852 c31 -11 83 -34 115 -52 294 -166 492 -500 559 -940 21
-142 21 -405 -1 -535 -31 -187 -115 -390 -215 -520 -63 -82 -254 -268 -264
-258 -2 2 -13 -8 -25 -23 -11 -15 -21 -23 -21 -18 -1 5 -8 0 -18 -12 -9 -11
-20 -20 -23 -20 -10 1 -119 -77 -119 -86 0 -5 -4 -7 -9 -3 -5 3 -16 -4 -24
-15 -7 -11 -16 -18 -19 -15 -3 3 -16 -5 -29 -17 -14 -13 -27 -23 -30 -23 -11
0 -149 -99 -149 -107 0 -5 -4 -7 -8 -4 -5 3 -23 -8 -40 -24 -18 -16 -32 -27
-32 -24 0 8 -163 -107 -178 -125 -7 -9 -17 -16 -23 -16 -5 0 -14 -7 -19 -15
-5 -8 -10 -11 -10 -7 0 11 -150 -92 -150 -103 0 -6 -3 -9 -7 -8 -12 4 -83 -42
-83 -53 0 -6 -4 -8 -9 -5 -5 3 -24 -8 -42 -25 -19 -18 -36 -31 -39 -31 -5 0
-102 -61 -97 -62 1 -1 227 2 502 5 535 6 565 9 780 64 109 28 242 79 346 131
193 96 432 297 564 473 119 158 217 379 262 591 14 67 18 130 18 300 0 189 -3
228 -23 319 -32 143 -74 256 -143 391 -151 291 -372 520 -669 692 -168 96
-440 184 -605 194 l-80 5 57 -19z"/>
<path fill="#000000" d="M4665 7794 c-247 -141 -787 -447 -1200 -681 -412 -234 -762 -435
-777 -445 l-28 -19 0 -1303 c0 -1031 3 -1306 13 -1314 6 -5 235 -136 507 -290
272 -154 816 -462 1209 -686 393 -223 722 -406 731 -406 15 0 805 446 1660
937 129 74 360 205 512 291 l277 157 0 1310 1 1310 -518 296 c-284 163 -760
435 -1057 604 -297 169 -610 347 -695 396 -85 48 -162 90 -170 93 -8 3 -212
-106 -465 -250z m742 -342 c324 -185 903 -517 1083 -622 69 -39 247 -142 395
-227 149 -85 276 -160 283 -165 9 -8 12 -238 12 -1087 l0 -1076 -123 -69 c-67
-38 -363 -206 -657 -374 -294 -167 -605 -344 -690 -392 -85 -48 -251 -142
-369 -209 -117 -67 -217 -121 -222 -121 -5 0 -91 47 -192 104 -100 57 -450
254 -777 438 -327 184 -709 399 -847 478 l-253 143 0 1081 0 1081 797 455
c961 548 1265 720 1275 720 4 0 133 -71 285 -158z"/>
<path fill="#000000" d="M3825 6687 c-187 -106 -396 -223 -463 -261 l-122 -69 0 -177 c0 -173
0 -177 23 -188 844 -404 1087 -518 1092 -514 3 3 5 176 5 384 l0 378 423 0
c239 0 449 -5 485 -10 172 -28 337 -110 464 -229 131 -122 218 -267 268 -441
26 -92 38 -311 22 -415 -6 -38 -10 -71 -8 -72 8 -8 56 171 72 265 23 145 15
451 -15 606 -88 438 -307 753 -617 889 -34 15 -71 27 -82 27 -12 0 -24 5 -27
10 -4 6 -212 10 -593 9 l-587 -1 -340 -191z"/>
<path fill="#000000" d="M3793 5052 l-553 -277 0 -225 0 -225 563 -312 c310 -172 569 -313
576 -313 7 0 54 29 104 63 51 35 218 151 372 257 541 373 671 465 763 537 97
77 117 99 55 60 -45 -28 -158 -78 -228 -101 -146 -46 -182 -49 -643 -55 l-442
-6 0 432 c0 237 -3 434 -7 436 -5 3 -257 -120 -560 -271z"/>
</g>
</svg>
